# xmcd CD database file
#
# Track frame offsets:
#	150
#	21448
#	53154
#	77966
#	85199
#	119634
#	150105
#	153710
#	182028
#	187751
#	209012
#
# Disc length: 3239 seconds
#
# Revision: 0
# Processed by: cddbd v1.5.2PL0 Copyright (c) Steve Scherf et al.
# Submitted via: CDex 1.77
#
DISCID=8d0ca50b
DTITLE=Endemic Ensemble - Lunar
DYEAR=2012
DGENRE=Jazz
TTITLE0=Lunar
TTITLE1=Return of the Pelicans
TTITLE2=Lilu
TTITLE3=March-Bop
TTITLE4=Solace
TTITLE5=5 Syllables
TTITLE6=A Short Walk with Many Stops
TTITLE7=Spikenard
TTITLE8=Fred's Folly
TTITLE9=More Than Anything
TTITLE10=Do the Math
EXTD=YEAR: 2012
EXTT0=
EXTT1=
EXTT2=
EXTT3=
EXTT4=
EXTT5=
EXTT6=
EXTT7=
EXTT8=
EXTT9=
EXTT10=
PLAYORDER=
